<svg xmlns="http://www.w3.org/2000/svg" viewBox="0 0 800 600" version="1.1">
  <rect width="800" height="600" fill="#ffffff"/>
  <text x="400" y="28" font-family="monospace" font-size="14" text-anchor="middle">ESP32 + DHT11 + OLED I2C Schematic</text>

  <rect x="80" y="200" width="200" height="240" fill="#ffffff" stroke="#000000" stroke-width="2"/>
  <text x="180" y="190" font-family="monospace" font-size="11" text-anchor="middle">U1 ESP32</text>
  <text x="275" y="234" font-family="monospace" font-size="11" text-anchor="end">3V3</text>
  <text x="275" y="264" font-family="monospace" font-size="11" text-anchor="end">GND</text>
  <text x="275" y="324" font-family="monospace" font-size="11" text-anchor="end">GPIO4</text>
  <text x="275" y="384" font-family="monospace" font-size="11" text-anchor="end">GPIO21</text>
  <text x="275" y="414" font-family="monospace" font-size="11" text-anchor="end">GPIO22</text>
  <line x1="280" y1="230" x2="300" y2="230" stroke="#000000" stroke-width="1.5"/>
  <line x1="280" y1="260" x2="300" y2="260" stroke="#000000" stroke-width="1.5"/>
  <line x1="280" y1="320" x2="300" y2="320" stroke="#000000" stroke-width="1.5"/>
  <line x1="280" y1="380" x2="300" y2="380" stroke="#000000" stroke-width="1.5"/>
  <line x1="280" y1="410" x2="300" y2="410" stroke="#000000" stroke-width="1.5"/>

  <rect x="580" y="130" width="140" height="110" fill="#ffffff" stroke="#000000" stroke-width="2"/>
  <text x="650" y="120" font-family="monospace" font-size="11" text-anchor="middle">U2 DHT11</text>
  <text x="585" y="164" font-family="monospace" font-size="11">VCC</text>
  <text x="585" y="189" font-family="monospace" font-size="11">DATA</text>
  <text x="585" y="214" font-family="monospace" font-size="11">GND</text>
  <line x1="560" y1="160" x2="580" y2="160" stroke="#000000" stroke-width="1.5"/>
  <line x1="560" y1="185" x2="580" y2="185" stroke="#000000" stroke-width="1.5"/>
  <line x1="560" y1="210" x2="580" y2="210" stroke="#000000" stroke-width="1.5"/>

  <rect x="580" y="400" width="160" height="150" fill="#ffffff" stroke="#000000" stroke-width="2"/>
  <text x="660" y="390" font-family="monospace" font-size="11" text-anchor="middle">U3 OLED 128x64</text>
  <text x="585" y="434" font-family="monospace" font-size="11">VCC</text>
  <text x="585" y="464" font-family="monospace" font-size="11">GND</text>
  <text x="585" y="504" font-family="monospace" font-size="11">SDA</text>
  <text x="585" y="534" font-family="monospace" font-size="11">SCL</text>
  <line x1="560" y1="430" x2="580" y2="430" stroke="#000000" stroke-width="1.5"/>
  <line x1="560" y1="460" x2="580" y2="460" stroke="#000000" stroke-width="1.5"/>
  <line x1="560" y1="500" x2="580" y2="500" stroke="#000000" stroke-width="1.5"/>
  <line x1="560" y1="530" x2="580" y2="530" stroke="#000000" stroke-width="1.5"/>

  <rect x="513" y="120" width="14" height="55" fill="#ffffff" stroke="#000000" stroke-width="2"/>
  <text x="535" y="142" font-family="monospace" font-size="11">R1</text>
  <text x="535" y="158" font-family="monospace" font-size="11">10kΩ</text>
  <line x1="520" y1="100" x2="520" y2="120" stroke="#000000" stroke-width="1.5"/>
  <line x1="520" y1="175" x2="520" y2="185" stroke="#000000" stroke-width="1.5"/>

  <line x1="300" y1="230" x2="320" y2="230" stroke="#000000" stroke-width="1.5"/>
  <line x1="320" y1="230" x2="320" y2="100" stroke="#000000" stroke-width="1.5"/>
  <line x1="320" y1="100" x2="560" y2="100" stroke="#000000" stroke-width="1.5"/>
  <line x1="560" y1="100" x2="560" y2="430" stroke="#000000" stroke-width="1.5"/>
  <text x="330" y="94" font-family="monospace" font-size="11">+3V3</text>

  <line x1="300" y1="260" x2="380" y2="260" stroke="#000000" stroke-width="1.5"/>
  <line x1="380" y1="210" x2="380" y2="460" stroke="#000000" stroke-width="1.5"/>
  <line x1="380" y1="210" x2="580" y2="210" stroke="#000000" stroke-width="1.5"/>
  <line x1="380" y1="460" x2="580" y2="460" stroke="#000000" stroke-width="1.5"/>
  <text x="305" y="252" font-family="monospace" font-size="11">GND</text>

  <line x1="300" y1="320" x2="400" y2="320" stroke="#000000" stroke-width="1.5"/>
  <line x1="400" y1="320" x2="400" y2="185" stroke="#000000" stroke-width="1.5"/>
  <line x1="400" y1="185" x2="580" y2="185" stroke="#000000" stroke-width="1.5"/>
  <text x="410" y="313" font-family="monospace" font-size="11">DATA</text>

  <line x1="300" y1="380" x2="440" y2="380" stroke="#000000" stroke-width="1.5"/>
  <line x1="440" y1="380" x2="440" y2="500" stroke="#000000" stroke-width="1.5"/>
  <line x1="440" y1="500" x2="580" y2="500" stroke="#000000" stroke-width="1.5"/>
  <text x="305" y="373" font-family="monospace" font-size="11">SDA</text>

  <line x1="300" y1="410" x2="460" y2="410" stroke="#000000" stroke-width="1.5"/>
  <line x1="460" y1="410" x2="460" y2="530" stroke="#000000" stroke-width="1.5"/>
  <line x1="460" y1="530" x2="580" y2="530" stroke="#000000" stroke-width="1.5"/>
  <text x="305" y="425" font-family="monospace" font-size="11">SCL</text>

  <circle cx="520" cy="100" r="3" fill="#000000"/>
  <circle cx="560" cy="160" r="3" fill="#000000"/>
  <circle cx="520" cy="185" r="3" fill="#000000"/>
  <circle cx="380" cy="260" r="3" fill="#000000"/>
</svg>